<svg width="162.68883mm" height="42.772179mm" viewBox="0 0 162.68882 42.772178" version="1.1" id="svg1" xml:space="preserve" sodipodi:docname="design.inkscape.svg" inkscape:version="1.3.1 (91b66b0783, 2023-11-16, custom)" xmlns:inkscape="http://www.inkscape.org/namespaces/inkscape" xmlns:sodipodi="http://sodipodi.sourceforge.net/DTD/sodipodi-0.dtd" xmlns:xlink="http://www.w3.org/1999/xlink" xmlns="http://www.w3.org/2000/svg" xmlns:svg="http://www.w3.org/2000/svg">
	<sodipodi:namedview id="namedview1" pagecolor="#505050" bordercolor="#eeeeee" borderopacity="1" inkscape:showpageshadow="0" inkscape:pageopacity="0" inkscape:pagecheckerboard="0" inkscape:deskcolor="#505050" inkscape:document-units="mm" inkscape:zoom="1.1011145" inkscape:cx="155.75129" inkscape:cy="-119.42446" inkscape:window-width="2540" inkscape:window-height="1023" inkscape:window-x="0" inkscape:window-y="0" inkscape:window-maximized="1" inkscape:current-layer="layer2" showgrid="false" inkscape:export-bgcolor="#ffffff00">
		<inkscape:page x="0" y="0" width="162.68883" height="42.772179" id="page19" margin="0" bleed="0" />
	</sodipodi:namedview>
	<defs id="defs1">
		<linearGradient data-banner-class="background-gradient" id="linearGradient55">
			<stop style="stop-color:#ffffff;stop-opacity:1;" offset="0.30320638" id="stop54" />
			<stop style="stop-color:#ffffff;stop-opacity:0;" offset="1" id="stop55" />
		</linearGradient>
		<linearGradient data-banner-class="background-image-mask-gradient" id="linearGradient14">
			<stop style="stop-color:#000000;stop-opacity:1;" offset="0.30320638" id="stop14" />
			<stop style="stop-color:#ffffff;stop-opacity:1;" offset="1" id="stop15" />
		</linearGradient>
		<linearGradient inkscape:collect="always" xlink:href="#linearGradient82-2" id="linearGradient5" x1="18.784613" y1="57.455349" x2="159.75043" y2="57.455349" gradientUnits="userSpaceOnUse" gradientTransform="translate(310.57446,-12.675088)" />
		<linearGradient data-banner-class="color-stripe-gradient" id="linearGradient82-2">
			<stop style="stop-color:#ff0000;stop-opacity:1;" offset="0" id="stop104" />
			<stop style="stop-color:#ffff00;stop-opacity:1;" offset="0.18269952" id="stop105" />
			<stop style="stop-color:#00ff00;stop-opacity:1;" offset="0.39030838" id="stop106" />
			<stop style="stop-color:#00ffff;stop-opacity:1;" offset="0.59760052" id="stop107" />
			<stop style="stop-color:#0000ff;stop-opacity:1;" offset="0.79487675" id="stop108" />
			<stop style="stop-color:#ff00ff;stop-opacity:1;" offset="1" id="stop109" />
		</linearGradient>
		<linearGradient inkscape:collect="always" xlink:href="#linearGradient55" id="linearGradient15" x1="12.732515" y1="45.720142" x2="165.80252" y2="15.906352" gradientUnits="userSpaceOnUse" gradientTransform="matrix(1,0,0,0.78569196,0.91790394,-0.86860867)" />
		<mask maskUnits="userSpaceOnUse" id="mask17">
			<path data-banner-class="mask" id="path18" style="display:inline;opacity:1;fill:url(#linearGradient18);stroke-width:0.303146;paint-order:fill markers stroke" d="M 16.447515,24.244587 H 162.08752 c 2.05812,0 3.71501,1.65689 3.71501,3.715001 v 23.139473 c 0,2.058112 -1.65689,3.715002 -3.71501,3.715002 H 16.447515 c -2.05811,0 -3.715,-1.65689 -3.715,-3.715002 V 27.959588 c 0,-2.058111 1.65689,-3.715001 3.715,-3.715001 z" />
		</mask>
		<linearGradient inkscape:collect="always" xlink:href="#linearGradient14" id="linearGradient18" gradientUnits="userSpaceOnUse" gradientTransform="matrix(1,0,0,0.78569196,-1e-8,11.747095)" x1="12.732515" y1="45.720142" x2="165.80252" y2="15.906352" />
		<filter data-banner-class="Drop Shadow" style="color-interpolation-filters:sRGB" id="filter56" x="-0.031419724" y="-0.15732744" width="1.0628394" height="1.3991793">
			<feFlood result="flood" in="SourceGraphic" flood-opacity="0.200000" flood-color="rgb(0,0,0)" id="feFlood55" />
			<feGaussianBlur result="blur" in="SourceGraphic" stdDeviation="2.003924" id="feGaussianBlur55" />
			<feOffset result="offset" in="blur" dx="0.000000" dy="2.583867" id="feOffset55" />
			<feComposite result="comp1" operator="in" in="flood" in2="offset" id="feComposite55" />
			<feComposite result="comp2" operator="over" in="SourceGraphic" in2="comp1" id="feComposite56" />
		</filter>
	</defs>
	<g data-banner-class="horizontal" id="layer1" transform="translate(-318.49757,-9.3628894)">
		<path data-banner-class="shadow" id="path20" style="display:inline;opacity:1;fill:#ffffff;fill-opacity:1;stroke-width:0.303146;paint-order:fill markers stroke;filter:url(#filter56)" d="M 17.365414,11.590389 H 163.00542 c 2.05811,0 3.715,1.65689 3.715,3.715 v 23.139475 c 0,2.05811 -1.65689,3.715 -3.715,3.715 H 17.365414 c -2.05811,0 -3.715,-1.65689 -3.715,-3.715 V 15.305389 c 0,-2.05811 1.65689,-3.715 3.715,-3.715 z" transform="translate(309.65655,2.5819009)" />
		<path data-banner-class="color-stripe" id="color-stripe" style="fill:url(#linearGradient5);stroke-width:0.0784105;paint-order:fill markers stroke" d="m 330.84692,43.669859 h 137.9901 c 0.82427,0 1.48786,0.49524 1.48786,1.1104 0,0.61516 -0.66359,1.1104 -1.48786,1.1104 h -137.9901 c -0.82427,0 -1.48785,-0.49524 -1.48785,-1.1104 0,-0.61516 0.66358,-1.1104 1.48785,-1.1104 z" />
		<g data-banner-class="background" id="background" transform="translate(309.65655,2.5819009)">
			<path data-banner-class="fallback" id="fallback" style="display:inline;opacity:1;fill:#ffffff;stroke-width:0.302511;paint-order:fill markers stroke" d="M 17.416924,11.667379 H 162.95393 c 2.05665,0 3.71237,1.652718 3.71237,3.705644 v 23.081198 c 0,2.052926 -1.65572,3.705643 -3.71237,3.705643 H 17.416924 c -2.056654,0 -3.712372,-1.652717 -3.712372,-3.705643 V 15.373023 c 0,-2.052926 1.655718,-3.705644 3.712372,-3.705644 z" />
			<g data-banner-class="image" id="image">
				<image data-banner-class="embed" width="134.7771" height="89.851387" preserveAspectRatio="none" xlink:href="../../../../../Downloads/alexandre-debieve-FO7JIlwjOtU-unsplash.jpg" id="embed" x="60.238495" y="-3.5220199" mask="url(#mask17)" transform="translate(0.91790394,-12.615704)" style="image-rendering:optimizeSpeed" />
			</g>
			<path data-banner-class="gradient" id="gradient" style="display:inline;opacity:1;fill:url(#linearGradient15);stroke-width:0.303146;paint-order:fill markers stroke" d="M 17.365419,11.628884 H 163.00543 c 2.05811,0 3.715,1.65689 3.715,3.715 v 23.139475 c 0,2.05811 -1.65689,3.715 -3.715,3.715 H 17.365419 c -2.05811,0 -3.715,-1.65689 -3.715,-3.715 V 15.343884 c 0,-2.05811 1.65689,-3.715 3.715,-3.715 z" />
			<path data-banner-class="solid-color" id="solid-color" style="display:inline;opacity:1;fill:#ffffff;stroke-width:0.303146;paint-order:fill markers stroke" d="M 17.365414,11.590389 H 163.00542 c 2.05811,0 3.715,1.65689 3.715,3.715 v 23.139475 c 0,2.05811 -1.65689,3.715 -3.715,3.715 H 17.365414 c -2.05811,0 -3.715,-1.65689 -3.715,-3.715 V 15.305389 c 0,-2.05811 1.65689,-3.715 3.715,-3.715 z" />
		</g>
		<g data-banner-class="content" id="content" transform="translate(310.57445,-10.033803)">
			<title id="title11">content</title><text data-banner-class="subtitle" xml:space="preserve" style="font-style:normal;font-variant:normal;font-weight:600;font-stretch:normal;font-size:3.4638px;font-family:'Cal Sans';-inkscape-font-specification:'Cal Sans, Semi-Bold';font-variant-ligatures:normal;font-variant-caps:normal;font-variant-numeric:normal;font-variant-east-asian:normal;opacity:1;fill:#000000;fill-opacity:1;stroke-width:0.133036;paint-order:fill markers stroke" x="38.497089" y="43.932247" id="subtitle">
				<title id="title12">subtitle</title>
				<tspan sodipodi:role="line" id="tspan4" style="font-style:normal;font-variant:normal;font-weight:600;font-stretch:normal;font-size:3.4638px;font-family:'Cal Sans';-inkscape-font-specification:'Cal Sans, Semi-Bold';font-variant-ligatures:normal;font-variant-caps:normal;font-variant-numeric:normal;font-variant-east-asian:normal;fill:#000000;fill-opacity:1;stroke-width:0.133036" x="38.497089" y="43.932247">Subtitle placeholder</tspan>
			</text><text data-banner-class="title" xml:space="preserve" style="font-style:normal;font-variant:normal;font-weight:600;font-stretch:normal;font-size:5.05275px;font-family:'Cal Sans';-inkscape-font-specification:'Cal Sans, Semi-Bold';font-variant-ligatures:normal;font-variant-caps:normal;font-variant-numeric:normal;font-variant-east-asian:normal;opacity:1;fill:#000000;fill-opacity:1;stroke-width:0.194064;paint-order:fill markers stroke" x="38.455933" y="38.518772" id="title">
				<tspan sodipodi:role="line" id="tspan3" style="font-style:normal;font-variant:normal;font-weight:600;font-stretch:normal;font-size:5.05275px;font-family:'Cal Sans';-inkscape-font-specification:'Cal Sans, Semi-Bold';font-variant-ligatures:normal;font-variant-caps:normal;font-variant-numeric:normal;font-variant-east-asian:normal;fill:#000000;fill-opacity:1;stroke-width:0.194064" x="38.455933" y="38.518772">Title placeholder</tspan>
			</text>
			<g data-banner-class="icon" id="icon">
				<path data-banner-class="icon-svg" fill="currentColor" d="m 25.227101,34.205286 c -0.235876,0.06157 -0.387336,0.148721 -0.505541,0.264214 -0.166159,0.16342 -0.274563,0.392234 -0.333944,0.82424 -0.06095,0.445075 -0.06219,1.034514 -0.06219,1.879454 v 4.66868 a 2.2727811,2.2727811 0 0 1 0.70765,-0.323048 1.7922937,1.7922937 0 0 1 0.193956,-0.03922 v -7.274315 z m 0.901602,7.238362 h 6.913129 V 37.17374 c 0,-0.845486 -10e-4,-1.434925 -0.06219,-1.88 -0.05929,-0.432006 -0.167805,-0.660808 -0.333943,-0.82424 -0.166777,-0.162884 -0.399875,-0.269115 -0.841133,-0.326862 -0.454332,-0.05992 -1.055759,-0.061 -1.918675,-0.061 h -2.404613 c -0.545855,0 -0.987134,0 -1.352664,0.01585 z m 0.751773,0.883071 h -0.662432 c -0.588352,0 -0.793735,0.0036 -0.95172,0.04521 a 1.3423135,1.3423135 0 0 0 -0.924479,0.837858 c 0.0083,0.208103 0.02347,0.391689 0.04572,0.555118 0.05929,0.432006 0.167806,0.660808 0.333945,0.82424 0.166776,0.162884 0.399853,0.269115 0.841132,0.326862 0.454333,0.05992 1.055759,0.061 1.918675,0.061 h 2.404613 c 0.862917,0 1.464878,-10e-4 1.918676,-0.06047 0.441258,-0.0583 0.674973,-0.164512 0.841132,-0.327408 0.166159,-0.163419 0.274564,-0.392233 0.333945,-0.824235 0.05003,-0.362818 0.05992,-0.822603 0.06157,-1.438194 h -3.756205 v 1.638125 c 0,0.162349 0,0.243512 -0.05724,0.276199 -0.05724,0.03269 -0.135068,-0.0039 -0.290912,-0.07627 L 28.19057,43.817203 c -0.05334,-0.02452 -0.07948,-0.0365 -0.107886,-0.0365 -0.02842,0 -0.05456,0.01194 -0.107885,0.0365 l -0.746338,0.347566 c -0.156276,0.07245 -0.234249,0.108958 -0.291447,0.07626 -0.05662,-0.03268 -0.05662,-0.114397 -0.05662,-0.276199 z" id="icon-svg" style="stroke-width:0.544769" />
			</g>
		</g>
	</g>
</svg>