<svg width="162.68884mm" height="48.491169mm" viewBox="0 0 162.68884 48.491168" version="1.1" id="svg1" xml:space="preserve" sodipodi:docname="vertical.inkscape.svg" inkscape:export-filename="vertical.inkscape.svg" inkscape:export-xdpi="96" inkscape:export-ydpi="96" inkscape:version="1.3.2 (091e20ef0f, 2023-11-25)" xmlns:inkscape="http://www.inkscape.org/namespaces/inkscape" xmlns:sodipodi="http://sodipodi.sourceforge.net/DTD/sodipodi-0.dtd" xmlns:xlink="http://www.w3.org/1999/xlink" xmlns="http://www.w3.org/2000/svg" xmlns:svg="http://www.w3.org/2000/svg">
	<sodipodi:namedview id="namedview1" pagecolor="#505050" bordercolor="#eeeeee" borderopacity="1" inkscape:showpageshadow="0" inkscape:pageopacity="0" inkscape:pagecheckerboard="0" inkscape:deskcolor="#505050" inkscape:document-units="mm" inkscape:zoom="1.6238757" inkscape:cx="197.05942" inkscape:cy="147.48666" inkscape:window-width="2560" inkscape:window-height="1011" inkscape:window-x="0" inkscape:window-y="32" inkscape:window-maximized="1" inkscape:current-layer="svg1" />
	<defs id="defs1">
		<linearGradient id="linearGradient55">
			<stop style="stop-color:#ffffff;stop-opacity:1;" offset="0.30320638" id="stop54" />
			<stop style="stop-color:#ffffff;stop-opacity:0;" offset="1" id="stop55" />
		</linearGradient>
		<linearGradient id="linearGradient14">
			<stop style="stop-color:#000000;stop-opacity:1;" offset="0.30320638" id="stop14" />
			<stop style="stop-color:#ffffff;stop-opacity:1;" offset="1" id="stop15" />
		</linearGradient>
		<linearGradient id="linearGradient82-2">
			<stop style="stop-color:#ff0000;stop-opacity:1;" offset="0" id="stop104" />
			<stop style="stop-color:#ffff00;stop-opacity:1;" offset="0.18269952" id="stop105" />
			<stop style="stop-color:#00ff00;stop-opacity:1;" offset="0.39030838" id="stop106" />
			<stop style="stop-color:#00ffff;stop-opacity:1;" offset="0.59760052" id="stop107" />
			<stop style="stop-color:#0000ff;stop-opacity:1;" offset="0.79487675" id="stop108" />
			<stop style="stop-color:#ff00ff;stop-opacity:1;" offset="1" id="stop109" />
		</linearGradient>
		<linearGradient xlink:href="#linearGradient82-2" id="linearGradient19" gradientUnits="userSpaceOnUse" gradientTransform="translate(-7.92309,-16.357465)" x1="18.784613" y1="57.455349" x2="159.75043" y2="57.455349" />
		<linearGradient xlink:href="#linearGradient55" id="linearGradient2" x1="90.18544" y1="96.020027" x2="90.18544" y2="59.73156" gradientUnits="userSpaceOnUse" gradientTransform="translate(-8.84101,-54.922146)" />
		<mask maskUnits="userSpaceOnUse" id="mask13">
			<path id="path14" style="opacity:1;fill:url(#linearGradient16);stroke-width:0.342;paint-order:fill markers stroke" d="M 163.04842,11.667375 H 17.322411 c -2.034292,0 -3.672002,1.637713 -3.672002,3.671999 v 28.944467 c 0,2.034288 1.63771,3.672001 3.672002,3.672001 H 163.04842 c 2.03429,0 3.672,-1.637713 3.672,-3.672001 V 15.339374 c 0,-2.034286 -1.63771,-3.671999 -3.672,-3.671999 z" />
		</mask>
		<linearGradient xlink:href="#linearGradient14" id="linearGradient16" gradientUnits="userSpaceOnUse" gradientTransform="matrix(-1,0,0,1,180.37085,-48.064185)" x1="90.18544" y1="95.033531" x2="90.18544" y2="47.599419" />
		<filter style="color-interpolation-filters:sRGB" id="filter63" x="-0.031419723" y="-0.13253295" width="1.0628394" height="1.3362694">
			<feFlood result="flood" in="SourceGraphic" flood-opacity="0.200000" flood-color="rgb(0,0,0)" id="feFlood62" />
			<feGaussianBlur result="blur" in="SourceGraphic" stdDeviation="2.003924" id="feGaussianBlur62" />
			<feOffset result="offset" in="blur" dx="0.000000" dy="2.583867" id="feOffset62" />
			<feComposite result="comp1" operator="in" in="flood" in2="offset" id="feComposite62" />
			<feComposite result="comp2" operator="over" in="SourceGraphic" in2="comp1" id="feComposite63" />
		</filter>
	</defs>
	<path id="path62" style="display:inline;fill:#ffffff;stroke-width:0.342;paint-order:fill markers stroke;filter:url(#filter63)" d="m 8.48142,4.809414 h 145.72601 c 2.03429,0 3.672,1.637712 3.672,3.672 v 28.944465 c 0,2.03429 -1.63771,3.672 -3.672,3.672 H 8.48142 c -2.03429,0 -3.672,-1.63771 -3.672,-3.672 V 8.481414 c 0,-2.034288 1.63771,-3.672 3.672,-3.672 z" />
	<path id="path12" style="fill:url(#linearGradient19);stroke-width:0.0784105;paint-order:fill markers stroke" d="m 12.34937,39.987489 h 137.9901 c 0.82427,0 1.48786,0.49523 1.48786,1.11039 0,0.61516 -0.66359,1.1104 -1.48786,1.1104 H 12.34937 c -0.82427,0 -1.48785,-0.49524 -1.48785,-1.1104 0,-0.61516 0.66358,-1.11039 1.48785,-1.11039 z" />
	<path id="rect12" style="display:inline;fill:#ffffff;stroke-width:0.341536;paint-order:fill markers stroke" d="m 8.55859,4.833981 h 145.52869 c 2.03154,0 3.66703,1.635495 3.66703,3.667028 v 28.905275 c 0,2.031533 -1.63549,3.667028 -3.66703,3.667028 H 8.55859 c -2.03153,0 -3.66703,-1.635495 -3.66703,-3.667028 V 8.501009 c 0,-2.031533 1.6355,-3.667028 3.66703,-3.667028 z" />
	<image width="153.07002" height="102.04668" preserveAspectRatio="none" xlink:href="../../../../../Downloads/alexandre-debieve-FO7JIlwjOtU-unsplash.jpg" id="image13" x="13.650405" y="-21.211729" mask="url(#mask13)" style="image-rendering:optimizeSpeed" transform="matrix(-1,0,0,1,171.52984,-6.857961)" />
	<path id="rect20" style="display:inline;fill:url(#linearGradient2);stroke-width:0.342;paint-order:fill markers stroke" d="m 8.48142,4.809414 h 145.72601 c 2.03429,0 3.672,1.637712 3.672,3.672 v 28.944467 c 0,2.034288 -1.63771,3.672 -3.672,3.672 H 8.48142 c -2.034288,0 -3.672,-1.637712 -3.672,-3.672 V 8.481414 c 0,-2.034288 1.637712,-3.672 3.672,-3.672 z" />
	<path id="rect1" style="display:inline;fill:#ffffff;stroke-width:0.342;paint-order:fill markers stroke" d="m 8.48142,4.809414 h 145.72601 c 2.03429,0 3.672,1.637712 3.672,3.672 v 28.944467 c 0,2.034288 -1.63771,3.672 -3.672,3.672 H 8.48142 c -2.034288,0 -3.672,-1.637712 -3.672,-3.672 V 8.481414 c 0,-2.034288 1.637712,-3.672 3.672,-3.672 z" />
	<text data-banner-class="subtitle" xml:space="preserve" style="font-style:normal;font-variant:normal;font-weight:600;font-stretch:normal;font-size:2.95147px;font-family:'Cal Sans';-inkscape-font-specification:'Cal Sans, Semi-Bold';font-variant-ligatures:normal;font-variant-caps:normal;font-variant-numeric:normal;font-variant-east-asian:normal;text-align:center;text-anchor:middle;fill:#000000;fill-opacity:1;stroke-width:0.113359;paint-order:fill markers stroke" x="81.337044" y="29.823992" id="text15">
		<tspan id="tspan15" style="font-style:normal;font-variant:normal;font-weight:600;font-stretch:normal;font-size:2.95147px;font-family:'Cal Sans';-inkscape-font-specification:'Cal Sans, Semi-Bold';font-variant-ligatures:normal;font-variant-caps:normal;font-variant-numeric:normal;font-variant-east-asian:normal;text-align:center;text-anchor:middle;fill:#000000;fill-opacity:1;stroke-width:0.113359" x="81.337044" y="29.823992">Subtitle placeholder</tspan>
	</text>
	<text data-banner-class="title" xml:space="preserve" style="font-style:normal;font-variant:normal;font-weight:600;font-stretch:normal;font-size:4.3054px;font-family:'Cal Sans';-inkscape-font-specification:'Cal Sans, Semi-Bold';font-variant-ligatures:normal;font-variant-caps:normal;font-variant-numeric:normal;font-variant-east-asian:normal;text-align:center;text-anchor:middle;fill:#000000;fill-opacity:1;stroke-width:0.16536;paint-order:fill markers stroke" x="81.322899" y="25.601515" id="text16">
		<tspan id="tspan16" style="font-style:normal;font-variant:normal;font-weight:600;font-stretch:normal;font-size:4.3054px;font-family:'Cal Sans';-inkscape-font-specification:'Cal Sans, Semi-Bold';font-variant-ligatures:normal;font-variant-caps:normal;font-variant-numeric:normal;font-variant-east-asian:normal;text-align:center;text-anchor:middle;fill:#000000;fill-opacity:1;stroke-width:0.16536" x="81.322899" y="25.601515">Title placeholder</tspan>
	</text>
	<path fill="currentColor" d="m 78.399148,11.080321 c -0.200988,0.05246 -0.330046,0.126724 -0.430767,0.225134 -0.141583,0.139249 -0.233953,0.33422 -0.284551,0.702328 -0.05194,0.379245 -0.05299,0.8815 -0.05299,1.601466 v 3.978142 a 1.9366169,1.9366169 0 0 1 0.602982,-0.275267 1.5271978,1.5271978 0 0 1 0.165268,-0.03342 v -6.19838 z m 0.768247,6.167745 h 5.890617 v -3.638351 c 0,-0.720432 -8.52e-4,-1.222687 -0.05299,-1.601932 -0.05052,-0.368108 -0.142985,-0.563069 -0.28455,-0.702328 -0.142109,-0.138792 -0.34073,-0.22931 -0.716722,-0.278516 -0.387132,-0.05106 -0.899603,-0.05198 -1.634886,-0.05198 h -2.048949 c -0.465119,0 -0.841129,0 -1.152594,0.01351 z m 0.640579,0.752457 h -0.564452 c -0.50133,0 -0.676335,0.0031 -0.810952,0.03852 a 1.1437736,1.1437736 0 0 0 -0.787741,0.713931 c 0.0071,0.177323 0.02,0.333755 0.03896,0.473012 0.05052,0.368108 0.142986,0.563068 0.284551,0.702327 0.142109,0.138792 0.340712,0.229311 0.716722,0.278517 0.387133,0.05106 0.899603,0.05198 1.634886,0.05198 h 2.048949 c 0.735284,0 1.24821,-8.52e-4 1.634887,-0.05153 0.375993,-0.04968 0.575139,-0.140179 0.716722,-0.278981 0.141582,-0.139248 0.233953,-0.334219 0.284551,-0.702324 0.04263,-0.309154 0.05106,-0.700933 0.05246,-1.225472 h -3.20063 v 1.395832 c 0,0.138336 0,0.207494 -0.04877,0.235346 -0.04877,0.02785 -0.11509,-0.0033 -0.247883,-0.06499 l -0.635938,-0.296145 c -0.04545,-0.02089 -0.06772,-0.0311 -0.09193,-0.0311 -0.02422,0 -0.04649,0.01017 -0.09193,0.0311 l -0.635948,0.296158 c -0.133161,0.06173 -0.199601,0.09284 -0.248339,0.06498 -0.04824,-0.02785 -0.04824,-0.09748 -0.04824,-0.235347 z" id="path16" style="stroke-width:0.464193" />
</svg>